<svg width="357" height="416" viewBox="0 0 357 416" fill="none" xmlns="http://www.w3.org/2000/svg">
<rect width="356.629" height="416" rx="20" fill="#025E73" fill-opacity="0.71"/>
<rect x="38.9122" y="29.2845" width="278.804" height="32.8949" rx="16.4474" fill="#E9E9E9" fill-opacity="0.71"/>
<rect x="38.9122" y="82.2372" width="53.2679" height="24.0012" rx="12.0006" fill="white"/>
<rect x="38.9122" y="86.2" width="57.3655" height="46.71" rx="11" fill="#A5A692"/>
<rect x="49.3267" y="102.816" width="36.5363" height="13.4776" fill="white"/>
<rect x="38.9122" y="165.678" width="53.2679" height="24.0012" rx="12.0006" fill="white"/>
<rect x="38.9122" y="169.641" width="57.3655" height="46.71" rx="11" fill="#A5A692"/>
<rect x="49.3267" y="186.257" width="36.5363" height="13.4776" fill="white"/>
<rect x="38.9122" y="253.13" width="53.2679" height="24.0012" rx="12.0006" fill="white"/>
<rect x="38.9122" y="257.093" width="57.3655" height="46.71" rx="11" fill="#A5A692"/>
<rect x="49.3267" y="273.709" width="36.5363" height="13.4776" fill="white"/>
<rect x="38.9122" y="340.582" width="53.2679" height="24.0012" rx="12.0006" fill="white"/>
<rect x="38.9122" y="344.545" width="57.3655" height="46.71" rx="11" fill="#A5A692"/>
<rect x="49.3267" y="361.162" width="36.5363" height="13.4776" fill="white"/>
<rect x="112.725" y="81.0338" width="53.2679" height="24.0012" rx="12.0006" fill="white"/>
<rect x="112.725" y="84.9966" width="57.3655" height="46.71" rx="11" fill="#A5A692"/>
<rect x="123.14" y="101.613" width="36.5363" height="13.4776" fill="white"/>
<rect x="112.725" y="164.474" width="53.2679" height="24.0012" rx="12.0006" fill="white"/>
<rect x="112.725" y="168.437" width="57.3655" height="46.71" rx="11" fill="#A5A692"/>
<rect x="123.14" y="185.054" width="36.5363" height="13.4776" fill="white"/>
<rect x="112.725" y="251.927" width="53.2679" height="24.0012" rx="12.0006" fill="white"/>
<rect x="112.725" y="255.889" width="57.3655" height="46.71" rx="11" fill="#A5A692"/>
<rect x="123.14" y="272.506" width="36.5363" height="13.4776" fill="white"/>
<rect x="112.725" y="339.379" width="53.2679" height="24.0012" rx="12.0006" fill="white"/>
<rect x="112.725" y="343.342" width="57.3655" height="46.71" rx="11" fill="#A5A692"/>
<rect x="123.14" y="359.958" width="36.5363" height="13.4776" fill="white"/>
<rect x="186.538" y="81.0338" width="53.2679" height="24.0012" rx="12.0006" fill="white"/>
<rect x="186.538" y="84.9966" width="57.3655" height="46.71" rx="11" fill="#A5A692"/>
<rect x="196.953" y="101.613" width="36.5363" height="13.4776" fill="white"/>
<rect x="186.538" y="164.474" width="53.2679" height="24.0012" rx="12.0006" fill="white"/>
<rect x="186.538" y="168.437" width="57.3655" height="46.71" rx="11" fill="#A5A692"/>
<rect x="196.953" y="185.054" width="36.5363" height="13.4776" fill="white"/>
<rect x="186.538" y="252.729" width="53.2679" height="24.0012" rx="12.0006" fill="white"/>
<rect x="186.538" y="256.692" width="57.3655" height="46.71" rx="11" fill="#A5A692"/>
<rect x="196.953" y="273.308" width="36.5363" height="13.4776" fill="white"/>
<rect x="186.538" y="340.181" width="53.2679" height="24.0012" rx="12.0006" fill="white"/>
<rect x="186.538" y="344.144" width="57.3655" height="46.71" rx="11" fill="#A5A692"/>
<rect x="196.953" y="360.76" width="36.5363" height="13.4776" fill="white"/>
<rect x="260.351" y="80.2315" width="53.2679" height="24.0012" rx="12.0006" fill="white"/>
<rect x="260.351" y="84.1943" width="57.3655" height="46.71" rx="11" fill="#A5A692"/>
<rect x="270.766" y="100.811" width="36.5363" height="13.4776" fill="white"/>
<rect x="260.351" y="163.672" width="53.2679" height="24.0012" rx="12.0006" fill="white"/>
<rect x="260.351" y="167.635" width="57.3655" height="46.71" rx="11" fill="#A5A692"/>
<rect x="270.766" y="184.251" width="36.5363" height="13.4776" fill="white"/>
<rect x="260.351" y="251.124" width="53.2679" height="24.0012" rx="12.0006" fill="white"/>
<rect x="260.351" y="255.087" width="57.3655" height="46.71" rx="11" fill="#A5A692"/>
<rect x="270.766" y="271.703" width="36.5363" height="13.4776" fill="white"/>
<rect x="260.351" y="338.577" width="53.2679" height="24.0012" rx="12.0006" fill="white"/>
<rect x="260.351" y="342.539" width="57.3655" height="46.71" rx="11" fill="#A5A692"/>
<rect x="270.766" y="359.156" width="36.5363" height="13.4776" fill="white"/>
</svg>
