<svg width="56" height="56" viewBox="0 0 56 56" fill="none" xmlns="http://www.w3.org/2000/svg">
<path fill-rule="evenodd" clip-rule="evenodd" d="M34.257 0H21.743V7.17072C20.4093 7.5708 19.1294 8.09549 17.9169 8.73126L12.6724 3.66666L3.97946 12.6685L8.96512 17.483C8.22332 18.8228 7.61886 20.2491 7.17073 21.743H0V34.257H7.17076C7.62883 35.784 8.25023 37.2404 9.01468 38.6059L2.57029 45.0503L11.419 53.899L18.004 47.3141C19.1906 47.9295 20.4411 48.4387 21.743 48.8292V56H34.257V48.8292C35.6341 48.4161 36.9538 47.8702 38.2012 47.2063L43.486 52.4911L52.3347 43.6424L47.0967 38.4044C47.8103 37.0975 48.3936 35.7092 48.8292 34.257H56V21.743H48.8293C48.4275 20.4035 47.8999 19.1183 47.2604 17.9012L52.6476 12.514L43.7989 3.66528L38.5055 8.95874C37.1691 8.21985 35.7466 7.61756 34.257 7.17072V0ZM28 41.2961C35.3432 41.2961 41.2961 35.3432 41.2961 28C41.2961 20.6567 35.3432 14.7039 28 14.7039C20.6568 14.7039 14.7039 20.6567 14.7039 28C14.7039 35.3432 20.6568 41.2961 28 41.2961Z" fill="#BFB78F"/>
</svg>
